<svg width="26" height="24" viewBox="0 0 26 24" fill="none" xmlns="http://www.w3.org/2000/svg">
    <path d="M22.4027 24H3.20339C2.34669 23.9916 1.52831 23.642 0.927781 23.0278C0.327251 22.4137 -0.00637541 21.5852 9.23127e-05 20.7242V3.2758C-0.00637541 2.41475 0.327251 1.58629 0.927781 0.972168C1.52831 0.358047 2.34669 0.00842219 3.20339 0H22.4027C22.8275 0.00294637 23.2476 0.0899664 23.639 0.256093C24.0303 0.422219 24.3853 0.664198 24.6836 0.968212C24.982 1.27223 25.2178 1.63232 25.3776 2.02794C25.5375 2.42355 25.6182 2.84694 25.6153 3.27392V20.7223C25.6187 21.1496 25.5383 21.5734 25.3787 21.9695C25.2191 22.3655 24.9833 22.726 24.685 23.0305C24.3866 23.3349 24.0314 23.5772 23.6398 23.7435C23.2482 23.9099 22.8278 23.9971 22.4027 24ZM3.20339 2.06191C2.89129 2.07027 2.59516 2.20244 2.3797 2.42953C2.16424 2.65663 2.04697 2.9602 2.05349 3.27392V20.7223C2.04697 21.0361 2.16424 21.3396 2.3797 21.5667C2.59516 21.7938 2.89129 21.926 3.20339 21.9343H22.4027C22.5579 21.9317 22.7111 21.8982 22.8535 21.8359C22.9958 21.7736 23.1246 21.6836 23.2323 21.5712C23.34 21.4587 23.4245 21.3261 23.4811 21.1807C23.5376 21.0354 23.5651 20.8802 23.5619 20.7242V3.2758C23.5689 2.96193 23.4518 2.65808 23.2362 2.43088C23.0207 2.20367 22.7243 2.07166 22.412 2.06379L3.20339 2.06191Z" fill="white" />
    <path d="M14.2693 14.124C14.272 14.5492 14.1862 14.9704 14.0173 15.3604C13.8555 15.7385 13.6237 16.0824 13.3341 16.3735C13.0454 16.6617 12.7054 16.8928 12.3317 17.0545C11.9431 17.2217 11.5242 17.306 11.1015 17.3022H6.87524V15.1821H11.1015C11.2432 15.183 11.3835 15.1549 11.5141 15.0996C11.6385 15.0491 11.7516 14.9738 11.8463 14.8782C11.9428 14.7804 12.0201 14.6652 12.0741 14.5386C12.1284 14.4072 12.1557 14.2662 12.1543 14.124C12.1559 13.9817 12.1286 13.8406 12.0741 13.7093C12.0218 13.5834 11.9443 13.4697 11.8463 13.3754C11.7524 13.2769 11.6393 13.199 11.5141 13.1465C11.3834 13.0917 11.2431 13.0642 11.1015 13.0658H8.22303V10.9401H11.1015C11.2431 10.9417 11.3834 10.9142 11.5141 10.8594C11.6382 10.8082 11.7511 10.733 11.8463 10.638C11.9433 10.5399 12.0206 10.424 12.0741 10.2966C12.1281 10.1625 12.1553 10.0191 12.1543 9.87443C12.1557 9.73219 12.1284 9.59115 12.0741 9.4598C12.0213 9.33473 11.9439 9.22175 11.8463 9.12771C11.7529 9.02864 11.6397 8.95063 11.5141 8.89882C11.3835 8.84344 11.2432 8.81535 11.1015 8.81627H6.87524V6.69244H11.1015C11.5245 6.68983 11.9433 6.77544 12.3317 6.94385C12.7065 7.10696 13.0468 7.34068 13.3341 7.6324C13.6248 7.92047 13.8568 8.26268 14.0173 8.63991C14.1863 9.02917 14.2722 9.44974 14.2693 9.87443C14.2688 10.2648 14.196 10.6516 14.0547 11.0151C13.9138 11.377 13.7096 11.7106 13.4517 12.0001C13.7109 12.2894 13.9153 12.6238 14.0547 12.987C14.1967 13.349 14.2696 13.7348 14.2693 14.124ZM18.7308 17.3135H16.6177V8.81627H15.5649V6.69244H18.7383L18.7308 17.3135Z" fill="white" />
</svg>
    