<svg width="22" height="24" viewBox="0 0 22 24" fill="none" xmlns="http://www.w3.org/2000/svg">
    <path d="M11.9358 24H9.49228C6.97569 23.997 4.56302 22.9996 2.78352 21.2265C1.00402 19.4534 0.0029847 17.0494 0 14.5418V5.62486C0.000435724 5.24457 0.111208 4.87252 0.318974 4.55351C0.526741 4.23451 0.822639 3.98216 1.17103 3.82686L9.0656 0.330137C9.55459 0.114362 10.0832 0.00195959 10.618 2.53944e-05C11.1527 -0.0019088 11.6821 0.106667 12.1727 0.3189L20.2552 3.83061C20.6074 3.98375 20.907 4.23599 21.1174 4.55638C21.3277 4.87677 21.4396 5.25137 21.4394 5.63423V14.5418C21.4364 17.0513 20.4338 19.457 18.6519 21.2304C16.8699 23.0039 14.4544 24 11.9358 24ZM2.25559 5.80653V14.5418C2.25808 16.4534 3.02131 18.2861 4.37791 19.6378C5.73452 20.9895 7.57375 21.75 9.49228 21.7525H11.9358C13.8544 21.75 15.6936 20.9895 17.0502 19.6378C18.4068 18.2861 19.17 16.4534 19.1725 14.5418V5.81777L11.2648 2.3791C11.0619 2.29022 10.8427 2.24432 10.621 2.24432C10.3994 2.24432 10.1801 2.29022 9.97723 2.3791L2.25559 5.80653Z" fill="white" />
</svg>
    