<svg width="24" height="24" viewBox="0 0 24 24" fill="none" xmlns="http://www.w3.org/2000/svg">
    <path d="M20.985 24H2.05688C1.51151 23.9995 0.988618 23.7795 0.602985 23.3884C0.217352 22.9973 0.000489778 22.4669 0 21.9138V10.8148C0.00347017 10.5291 0.0631805 10.247 0.175626 9.98512C0.288071 9.72319 0.450984 9.48669 0.654796 9.28951L0.671443 9.2745L10.1364 0.550643C10.5141 0.196619 11.0094 0 11.5237 0C12.038 0 12.5333 0.196619 12.911 0.550643L22.3685 9.2745C22.3744 9.27851 22.3794 9.2836 22.3833 9.28951C22.5853 9.48315 22.7473 9.71553 22.86 9.97317C22.9728 10.2308 23.0339 10.5086 23.04 10.7904V21.9063C23.0407 22.1806 22.9881 22.4525 22.8852 22.7062C22.7823 22.96 22.6311 23.1906 22.4403 23.3851C22.2494 23.5795 22.0227 23.7339 21.773 23.8394C21.5232 23.9449 21.2555 23.9995 20.985 24ZM2.21965 21.7487H20.8222V10.8879L11.52 2.31605L2.21965 10.8898V21.7487Z" fill="#1DFF77" />
</svg>
    