<svg width="25" height="24" viewBox="0 0 25 24" fill="none" xmlns="http://www.w3.org/2000/svg">
    <path d="M24.8316 22.56C23.5792 20.3707 21.7783 18.5525 19.6098 17.288C18.74 16.7817 17.82 16.3688 16.865 16.056C18.1366 15.29 19.1895 14.2039 19.9209 12.9041C20.6523 11.6042 21.0371 10.135 21.0377 8.64C21.0348 6.34944 20.1322 4.15354 18.528 2.53387C16.9237 0.914198 14.7487 0.00296349 12.48 0C10.2111 0.00254098 8.03589 0.91364 6.43155 2.5334C4.82722 4.15317 3.92479 6.34931 3.92228 8.64C3.92288 10.135 4.30768 11.6042 5.03907 12.9041C5.77045 14.2039 6.82339 15.29 8.09496 16.056C4.72806 17.1441 1.88587 19.4641 0.126772 22.56C0.0642678 22.6692 0.0237021 22.7899 0.00739723 22.9149C-0.00890767 23.04 -0.000634357 23.1671 0.0317456 23.289C0.0641256 23.4108 0.119977 23.525 0.196105 23.6251C0.272234 23.7251 0.367148 23.809 0.475419 23.872C0.693802 23.9989 0.953164 24.0332 1.19653 23.9672C1.43989 23.9012 1.64735 23.7403 1.77334 23.52C3.41469 20.6559 6.11431 18.5661 9.27991 17.7092C12.4455 16.8522 15.8186 17.298 18.659 18.9488C20.5382 20.0453 22.099 21.6211 23.1851 23.5184C23.2686 23.6644 23.3887 23.7857 23.5334 23.8699C23.678 23.9542 23.8421 23.9985 24.0091 23.9984C24.1759 23.9982 24.3398 23.9541 24.4846 23.8704C24.7025 23.7429 24.8615 23.5334 24.9266 23.2877C24.9916 23.042 24.9575 22.7803 24.8316 22.56ZM5.82399 8.64C5.82399 6.85775 6.52525 5.14849 7.77349 3.88824C9.02173 2.628 10.7147 1.92 12.48 1.92C14.2446 1.92212 15.9364 2.6308 17.1842 3.89058C18.432 5.15037 19.1339 6.8584 19.136 8.64C19.1342 10.4038 18.4464 12.0963 17.2208 13.3531C15.9952 14.61 14.3297 15.3306 12.583 15.36C12.4847 15.36 12.3865 15.36 12.2867 15.36C10.5551 15.3092 8.91137 14.5788 7.70464 13.3241C6.49791 12.0693 5.82326 10.3889 5.82399 8.64Z" fill="white" />
</svg>
    