<svg width="23" height="24" viewBox="0 0 23 24" fill="none" xmlns="http://www.w3.org/2000/svg">
    <path d="M20.0143 19.8064C19.4823 20.1197 18.8747 20.2817 18.2573 20.2749L17.0788 20.2649C16.7721 20.2619 16.4704 20.3424 16.206 20.4978L16.1931 20.5064C15.9296 20.6621 15.7126 20.8855 15.5646 21.1535L15.0004 22.1863C14.7297 22.6779 14.3426 23.0956 13.8728 23.4027C13.4031 23.7098 12.8652 23.8969 12.3062 23.9476C11.6384 24.0104 10.9665 24.0162 10.2978 23.9647C9.73601 23.9235 9.19306 23.7445 8.71694 23.4435C8.24082 23.1425 7.84619 22.7289 7.56794 22.2391L6.99654 21.2206C6.84661 20.9552 6.62739 20.7354 6.3623 20.5849L6.34944 20.5763L6.3323 20.5678C6.06519 20.4135 5.76071 20.3359 5.45235 20.3435L4.28099 20.3706C3.72081 20.3823 3.1663 20.2565 2.666 20.0042C2.1657 19.752 1.73485 19.3809 1.41116 18.9236C1.02458 18.3818 0.684347 17.8084 0.394083 17.2094C0.148209 16.7014 0.0315557 16.1405 0.0544816 15.5766C0.0774074 15.0127 0.239201 14.4631 0.525501 13.9767L1.11975 12.9697C1.27678 12.7053 1.35831 12.4029 1.35545 12.0954V12.0797C1.3554 11.7684 1.26992 11.463 1.10833 11.1969L0.498359 10.197C0.206349 9.71632 0.0370671 9.17123 0.00542967 8.60972C-0.0262078 8.04822 0.0807726 7.48756 0.316943 6.97716C0.596089 6.37158 0.924808 5.79011 1.29974 5.23869C1.6155 4.77044 2.04235 4.38772 2.54215 4.12473C3.04194 3.86175 3.59911 3.72669 4.16385 3.73164L5.34236 3.74164C5.64911 3.74531 5.951 3.66478 6.21516 3.50879L6.22802 3.50022C6.49155 3.34451 6.70857 3.12107 6.85655 2.85312L7.42795 1.82032C7.69662 1.32882 8.08162 0.910638 8.54929 0.602346C9.01695 0.294055 9.55303 0.105046 10.1106 0.051855C10.7784 -0.0109888 11.4503 -0.0167228 12.1191 0.0347139C12.6809 0.0759579 13.2238 0.254979 13.6999 0.555951C14.1761 0.856924 14.5707 1.27057 14.8489 1.76033L15.4203 2.78026C15.5719 3.0475 15.7931 3.26866 16.0603 3.42023L15.6317 4.16447L16.0603 3.42308L16.0789 3.43308C16.3446 3.58384 16.6462 3.65985 16.9517 3.65307L18.1244 3.62593C18.6851 3.61378 19.2402 3.73936 19.741 3.99165C20.2419 4.24393 20.6732 4.61523 20.9971 5.07298C21.383 5.61498 21.7228 6.18838 22.0128 6.78717C22.2591 7.29526 22.3762 7.85632 22.3535 8.42052C22.3308 8.98472 22.1691 9.53458 21.8828 10.0213L21.2871 11.0283C21.1301 11.2927 21.0486 11.5951 21.0514 11.9026V11.9383C21.0553 12.241 21.1407 12.5371 21.2985 12.7954L21.9099 13.7953C22.2017 14.2761 22.3708 14.8212 22.4021 15.3827C22.4335 15.9442 22.3263 16.5048 22.0899 17.0151C21.8173 17.6252 21.4943 18.2115 21.1243 18.7679C20.8367 19.1927 20.4574 19.5476 20.0143 19.8064ZM15.3275 19.0264C15.8623 18.709 16.474 18.5445 17.0959 18.5508L18.2744 18.5608C18.5563 18.562 18.8342 18.4936 19.0833 18.3618C19.3325 18.23 19.5453 18.0388 19.7029 17.8051C20.0276 17.3327 20.3119 16.8338 20.5529 16.3137C20.672 16.0588 20.7264 15.7784 20.7115 15.4974C20.6965 15.2163 20.6126 14.9433 20.4672 14.7024L19.8572 13.7025C19.5347 13.1734 19.3624 12.5665 19.3587 11.9469L20.2158 11.9226L19.3587 11.9311C19.353 11.3099 19.5169 10.699 19.8329 10.1641L20.4286 9.16417C20.5712 8.92053 20.6514 8.64545 20.6621 8.36335C20.6728 8.08125 20.6137 7.80088 20.49 7.54712C20.2423 7.03361 19.9518 6.5419 19.6215 6.07721C19.4601 5.84751 19.2449 5.66095 18.9945 5.53393C18.7442 5.4069 18.4665 5.34329 18.1859 5.34868L17.0131 5.37725C16.3959 5.39148 15.7866 5.23741 15.2503 4.93157L15.2289 4.92014C14.6916 4.61625 14.2472 4.17181 13.9433 3.6345L13.3719 2.61456C13.2319 2.37046 13.0339 2.16459 12.7955 2.01511C12.5571 1.86563 12.2855 1.77715 12.0048 1.75747C11.434 1.71438 10.8606 1.71963 10.2906 1.77318C10.011 1.79768 9.74168 1.89047 9.50631 2.0434C9.27093 2.19633 9.07671 2.40473 8.94071 2.65027L8.37646 3.68307C8.08055 4.22323 7.64362 4.67299 7.11225 4.98442C6.57666 5.2999 5.96537 5.46384 5.34379 5.45868L4.16671 5.44868C3.88483 5.44747 3.607 5.5158 3.35783 5.64761C3.10866 5.77942 2.89585 5.97065 2.73823 6.20435C2.41705 6.67736 2.13562 7.17618 1.89685 7.69568C1.77777 7.95067 1.7233 8.23105 1.73825 8.51207C1.7532 8.79309 1.8371 9.06611 1.98256 9.30702L2.59252 10.307C2.91567 10.8358 3.08807 11.4429 3.09106 12.0626L2.23397 12.0883L3.09106 12.0797C3.08711 12.7003 2.9132 13.308 2.58823 13.8367L1.99256 14.8367C1.84996 15.0803 1.76974 15.3554 1.75902 15.6375C1.74831 15.9196 1.80743 16.2 1.93113 16.4537C2.17933 16.967 2.46984 17.4586 2.79965 17.9236C2.96033 18.1523 3.17448 18.3383 3.42346 18.4652C3.67243 18.5922 3.94868 18.6564 4.22814 18.6522L5.3995 18.625C6.02091 18.61 6.63454 18.7656 7.17368 19.075L7.20082 19.0907C7.73472 19.3957 8.17565 19.8401 8.47645 20.3764L9.04785 21.3949C9.18799 21.6392 9.38617 21.8452 9.62485 21.9946C9.86354 22.1441 10.1354 22.2325 10.4163 22.252C10.9871 22.2949 11.5605 22.2901 12.1305 22.2377C12.4105 22.2133 12.6802 22.1204 12.9159 21.9672C13.1515 21.814 13.3459 21.6052 13.4819 21.3592L14.0533 20.3264C14.3495 19.7861 14.7863 19.3359 15.3175 19.0236L15.3275 19.0264Z" fill="white" />
</svg>