<svg width="23" height="26" viewBox="0 0 23 26" fill="none" xmlns="http://www.w3.org/2000/svg">
    <path d="M14.8948 7.49294C15.8884 7.49242 16.8413 7.0976 17.5441 6.39517C18.2469 5.69274 18.6422 4.74012 18.6432 3.74647C18.6422 2.75282 18.2469 1.8002 17.5441 1.09777C16.8413 0.395339 15.8884 0.000519418 14.8948 0C13.9015 0.00103903 12.9492 0.396087 12.2468 1.09846C11.5444 1.80084 11.1494 2.75316 11.1483 3.74647C11.1494 4.73978 11.5444 5.6921 12.2468 6.39448C12.9492 7.09685 13.9015 7.4919 14.8948 7.49294ZM14.8948 1.96253C15.3676 1.96305 15.8208 2.15123 16.155 2.48573C16.4891 2.82022 16.6768 3.27368 16.6768 3.74647C16.6768 4.21926 16.4891 4.67272 16.155 5.00721C15.8208 5.34171 15.3676 5.52989 14.8948 5.53041C14.4218 5.52989 13.9684 5.34177 13.6339 5.00733C13.2995 4.67289 13.1114 4.21944 13.1108 3.74647C13.1114 3.2735 13.2995 2.82005 13.6339 2.48561C13.9684 2.15117 14.4218 1.96305 14.8948 1.96253Z" fill="white" />
    <path d="M21.8499 11.7417L21.7714 11.728H21.7891C21.7636 11.7319 18.8198 13.0488 13.7172 9.07074C13.6474 9.00054 13.5681 8.94043 13.4817 8.89215C10.4103 6.58225 7.81979 6.46254 6.17126 6.78047C5.04227 6.98037 3.98574 7.47378 3.10775 8.21115C2.89781 8.4056 2.77367 8.67546 2.76263 8.96141C2.75159 9.24735 2.85455 9.52598 3.04887 9.73604C3.14502 9.84022 3.26078 9.9244 3.38951 9.98377C3.51825 10.0431 3.65744 10.0765 3.7991 10.082C3.94076 10.0874 4.0821 10.0649 4.21503 10.0156C4.34797 9.96638 4.46987 9.89137 4.57376 9.79491C4.6032 9.7694 7.35467 7.31231 11.7174 10.2855C11.1736 12.0471 10.3499 13.7097 9.27795 15.2095C9.26444 15.225 9.25198 15.2414 9.24066 15.2586C9.15627 15.3744 9.06992 15.4902 8.9816 15.604C6.84833 18.3339 4.21854 19.5664 1.18251 19.2602C0.898353 19.2323 0.614733 19.3183 0.393947 19.4993C0.173161 19.6804 0.0332646 19.9416 0.00498917 20.2258C-0.0224076 20.5098 0.0637914 20.7932 0.244736 21.0138C0.42568 21.2345 0.686643 21.3745 0.970554 21.4033C1.33959 21.4413 1.71035 21.4603 2.08135 21.4602C5.84352 21.4602 8.61854 19.4682 10.5516 17.072C12.7673 17.6706 16.5864 19.378 16.5864 24.0154C16.5864 24.3017 16.7001 24.5762 16.9026 24.7787C17.105 24.9811 17.3795 25.0948 17.6658 25.0948C17.9521 25.0948 18.2266 24.9811 18.4291 24.7787C18.6315 24.5762 18.7452 24.3017 18.7452 24.0154C18.7452 18.4065 14.4944 16.1045 11.8508 15.2154C12.5411 14.0773 13.1126 12.8712 13.5563 11.6161C16.4647 13.5983 18.8041 14.0968 20.3898 14.0968C21.8558 14.0968 22.6899 13.6807 22.7645 13.6415C22.8619 13.4604 22.9151 13.2588 22.9198 13.0533C22.9244 12.8477 22.8803 12.6439 22.7911 12.4586C22.7019 12.2734 22.5702 12.1118 22.4066 11.9872C22.243 11.8626 22.0522 11.7785 21.8499 11.7417Z" fill="white" />
</svg>
    